# Blender v3.2.2 OBJ File: 'Slash2.blend'
# www.blender.org
mtllib Slash2.mtl
o Plane
v 0.636620 0.000000 -2.636620
v 0.636620 0.000000 -0.636620
v -0.507366 0.000000 -2.375513
v -1.424772 0.000000 -1.643906
v -1.933894 0.000000 -0.586703
v 0.015961 0.000000 -0.141661
v 0.138890 0.000000 -0.396926
v 0.360401 0.000000 -0.573575
v -1.933894 0.000000 -0.000000
v 0.015961 0.000000 -0.000000
v 0.636620 0.000000 2.636620
v 0.636620 0.000000 0.636620
v -0.507366 0.000000 2.375513
v -1.424772 0.000000 1.643906
v -1.933894 0.000000 0.586703
v 0.015961 0.000000 0.141661
v 0.138890 0.000000 0.396926
v 0.360401 0.000000 0.573575
vt 0.270522 0.950485
vt 0.435083 0.608771
vt 0.487464 0.620727
vt 0.487464 1.000000
vt 0.000000 0.500000
vt 0.369764 0.500000
vt 0.369764 0.526864
vt 0.000000 0.611260
vt 0.393076 0.575272
vt 0.096548 0.811745
vt 0.270522 0.950485
vt 0.487464 1.000000
vt 0.487464 0.620727
vt 0.435083 0.608771
vt 0.000000 0.611260
vt 0.369764 0.526864
vt 0.096548 0.811745
vt 0.393076 0.575272
vn 0.0000 1.0000 0.0000
g Plane_Plane_None
usemtl None
s off
f 3/1/1 8/2/1 2/3/1 1/4/1
f 9/5/1 10/6/1 6/7/1 5/8/1
f 5/8/1 6/7/1 7/9/1 4/10/1
f 4/10/1 7/9/1 8/2/1 3/1/1
f 13/11/1 11/12/1 12/13/1 18/14/1
f 9/5/1 15/15/1 16/16/1 10/6/1
f 15/15/1 14/17/1 17/18/1 16/16/1
f 14/17/1 13/11/1 18/14/1 17/18/1
